<?xml version="1.0" standalone="no"?>
<!DOCTYPE svg PUBLIC "-//W3C//DTD SVG 20010904//EN"
 "http://www.w3.org/TR/2001/REC-SVG-20010904/DTD/svg10.dtd">
<svg version="1.0" xmlns="http://www.w3.org/2000/svg"
 width="612.000000pt" height="612.000000pt" viewBox="0 0 612.000000 612.000000"
 preserveAspectRatio="xMidYMid meet">
<metadata>
Created by potrace 1.14, written by Peter Selinger 2001-2017
</metadata>
<g transform="translate(0.000000,612.000000) scale(0.100000,-0.100000)"
fill="#000000" stroke="none">
<path d="M3021 5723 c15 -2 29 -12 31 -21 4 -15 -1 -17 -29 -14 -21 3 -33 10
-33 19 0 8 -3 13 -8 11 -74 -32 -152 -75 -152 -83 0 -14 -42 -55 -56 -55 -9 0
-44 -51 -46 -67 0 -5 -7 -17 -14 -28 -8 -11 -14 -28 -14 -37 0 -10 -11 -35
-24 -56 -31 -48 -50 -108 -40 -130 4 -9 6 -21 5 -27 -2 -5 -4 -37 -6 -70 -2
-33 -7 -91 -11 -130 -4 -38 -7 -85 -6 -103 2 -30 0 -32 -23 -26 -22 5 -27 1
-41 -31 -15 -38 -21 -162 -10 -223 4 -17 16 -57 27 -87 17 -47 25 -57 50 -62
16 -3 30 -8 30 -12 1 -3 3 -31 5 -61 2 -30 9 -68 15 -83 7 -15 9 -30 6 -34 -4
-3 2 -18 12 -32 23 -32 29 -52 36 -120 10 -85 8 -132 -4 -144 -6 -6 -11 -17
-11 -24 0 -7 -20 -39 -45 -71 -40 -54 -107 -106 -200 -156 -42 -22 -295 -118
-385 -146 -190 -58 -208 -73 -238 -187 -30 -119 -46 -217 -57 -348 -10 -123
-16 -156 -65 -350 -55 -216 -76 -321 -85 -415 -11 -117 -18 -140 -74 -250 -21
-41 -29 -72 -30 -120 -2 -44 -8 -72 -22 -91 -27 -38 -27 -79 1 -116 22 -31 23
-35 11 -87 -14 -61 -13 -141 2 -171 6 -11 23 -36 39 -55 15 -19 28 -43 28 -52
0 -10 5 -18 10 -18 6 0 10 -9 10 -21 0 -11 5 -17 10 -14 5 3 10 -3 10 -14 0
-12 5 -21 10 -21 6 0 10 -9 10 -20 0 -11 5 -20 11 -20 5 0 8 -4 5 -9 -3 -5 1
-14 9 -21 8 -7 13 -16 10 -20 -3 -4 2 -13 10 -20 8 -7 15 -19 15 -27 0 -8 5
-11 10 -8 5 3 10 2 10 -4 0 -6 11 -21 24 -34 14 -14 22 -28 19 -31 -4 -3 -1
-6 5 -6 7 0 12 -7 12 -15 0 -8 5 -15 10 -15 6 0 10 -7 10 -15 0 -8 5 -15 10
-15 6 0 10 -7 10 -15 0 -8 5 -15 10 -15 6 0 10 -6 10 -13 0 -7 9 -18 20 -25
12 -7 18 -17 15 -22 -3 -6 1 -10 9 -10 9 0 16 -7 16 -15 0 -8 5 -15 10 -15 6
0 10 -4 10 -9 0 -6 11 -22 25 -37 14 -15 23 -29 20 -32 -2 -3 4 -13 15 -22 21
-18 23 -29 20 -127 -2 -44 -6 -61 -14 -56 -7 4 -7 2 1 -8 10 -12 10 -18 1 -27
-9 -9 -9 -12 1 -12 7 0 9 -5 4 -12 -4 -7 -9 -40 -10 -72 -2 -33 -5 -61 -8 -64
-2 -3 0 -14 6 -25 8 -14 8 -18 0 -13 -7 5 -10 -2 -10 -16 1 -20 -2 -51 -16
-156 -2 -15 -4 -27 -5 -27 -1 0 -2 -22 -4 -50 -1 -27 -5 -56 -9 -62 -5 -8 -3
-13 5 -13 10 0 10 -2 -1 -9 -46 -30 12 -31 1203 -31 l1204 0 -3 28 c-2 25 -12
87 -21 137 -2 11 -7 47 -10 80 -3 33 -8 71 -10 85 -4 22 -8 89 -18 260 -2 30
-1 62 3 71 7 19 56 81 116 149 102 114 153 199 230 382 15 37 47 90 71 118 74
87 106 219 75 313 -7 20 -14 94 -15 165 -3 116 -5 140 -20 190 -3 9 -7 40 -11
67 -11 101 -25 203 -44 325 -61 394 -57 368 -66 476 -6 79 -10 114 -21 189 -5
37 -108 376 -138 455 -15 37 -5 33 -301 134 -22 8 -92 33 -155 55 -63 23 -155
56 -205 74 -64 22 -103 43 -135 72 -59 53 -110 106 -110 114 0 4 -21 29 -46
55 -62 63 -73 99 -70 221 3 115 36 218 72 223 10 1 28 5 40 7 38 8 90 160 100
293 5 70 4 72 -21 82 -20 7 -24 15 -21 32 11 47 30 259 29 318 -1 59 -6 82
-24 111 -10 15 -14 41 -12 67 4 54 -32 146 -54 138 -8 -4 -11 -1 -7 5 6 10
-62 79 -78 79 -15 0 -24 4 -72 32 -38 23 -51 26 -57 16 -6 -9 -9 -7 -9 8 0 12
-7 25 -16 28 -12 4 -15 2 -10 -9 4 -12 0 -14 -22 -10 -15 2 -32 11 -38 20 -6
8 -14 11 -18 7 -4 -4 -13 0 -20 8 -19 24 -54 41 -61 29 -4 -6 -11 -6 -18 -1
-19 15 -67 21 -61 8 3 -6 -1 -3 -9 7 -8 10 -26 16 -43 16 -29 -2 -29 -2 -3 -6z
m79 -37 c0 -3 -4 -8 -10 -11 -5 -3 -10 -1 -10 4 0 6 5 11 10 11 6 0 10 -2 10
-4z m-120 -10 c0 -3 -4 -8 -10 -11 -5 -3 -10 -1 -10 4 0 6 5 11 10 11 6 0 10
-2 10 -4z m-106 -36 c-10 -4 -21 -6 -24 -3 -8 7 24 22 34 16 5 -4 1 -10 -10
-13z m-119 -119 c-3 -6 -11 -11 -17 -11 -6 0 -6 6 2 15 14 17 26 13 15 -4z
m-615 -3631 c8 -102 9 -345 1 -367 -1 -2 -8 -3 -17 -3 -12 0 -15 5 -9 23 18
55 17 86 -3 114 -14 19 -20 44 -20 74 1 36 -6 56 -31 92 l-31 46 29 46 c16 25
35 66 42 90 8 26 16 40 20 32 4 -6 12 -73 19 -147z m2061 -22 c0 -18 2 -40 4
-48 18 -86 18 -84 -24 -106 l-40 -22 5 42 c10 98 27 166 40 166 9 0 14 -12 15
-32z"/>
</g>
</svg>
